<svg width="30" height="30" viewBox="0 0 30 30" fill="none" xmlns="http://www.w3.org/2000/svg">
<path d="M15 0.511719C6.7125 0.511719 2.18932e-06 7.22422 2.18932e-06 15.5117C-0.00169914 18.6606 0.988222 21.7301 2.82933 24.2847C4.67043 26.8393 7.26922 28.7493 10.257 29.7437C11.007 29.8742 11.2875 29.4242 11.2875 29.0297C11.2875 28.6742 11.268 27.4937 11.268 26.2367C7.5 26.9312 6.525 25.3187 6.225 24.4742C6.0555 24.0422 5.325 22.7117 4.6875 22.3547C4.1625 22.0742 3.4125 21.3797 4.668 21.3617C5.85 21.3422 6.693 22.4492 6.975 22.8992C8.325 25.1672 10.482 24.5297 11.343 24.1367C11.475 23.1617 11.868 22.5062 12.3 22.1312C8.9625 21.7562 5.475 20.4617 5.475 14.7242C5.475 13.0922 6.0555 11.7437 7.0125 10.6922C6.8625 10.3172 6.3375 8.77972 7.1625 6.71722C7.1625 6.71722 8.418 6.32422 11.2875 8.25622C12.5086 7.91731 13.7703 7.74673 15.0375 7.74922C16.3125 7.74922 17.5875 7.91722 18.7875 8.25472C21.6555 6.30472 22.9125 6.71872 22.9125 6.71872C23.7375 8.78122 23.2125 10.3187 23.0625 10.6937C24.018 11.7437 24.6 13.0742 24.6 14.7242C24.6 20.4812 21.0945 21.7562 17.757 22.1312C18.3 22.5992 18.7695 23.4992 18.7695 24.9062C18.7695 26.9117 18.75 28.5242 18.75 29.0312C18.75 29.4242 19.032 29.8922 19.782 29.7422C22.7595 28.7369 25.3469 26.8232 27.1799 24.2704C29.0128 21.7177 29.9991 18.6544 30 15.5117C30 7.22422 23.2875 0.511719 15 0.511719Z" fill="white"/>
</svg>
